<svg width="247" height="208" viewBox="0 0 247 208" fill="none" xmlns="http://www.w3.org/2000/svg">
<g clip-path="url(#clip0_13_86)">
<path d="M201.162 100.388C201.162 103.311 201.039 106.204 200.793 109.068C200.599 111.303 200.334 113.518 199.999 115.713C199.643 118.037 199.206 120.333 198.689 122.602V122.604C198.352 124.097 197.98 125.578 197.576 127.046C196.403 131.315 194.944 135.5 193.21 139.574C192.833 140.46 192.443 141.34 192.042 142.214C190.522 145.524 188.82 148.748 186.944 151.871C181.684 160.641 175.117 168.562 167.47 175.361C166.642 176.095 165.803 176.818 164.953 177.528C146.897 192.582 124.108 200.813 100.581 200.777C45.031 200.777 0 155.832 0 100.388C0 44.9444 45.031 -0.000302908 100.581 -0.000302908C123.298 -0.0360535 145.352 7.6386 163.122 21.7636C163.955 22.4224 164.777 23.096 165.589 23.7844C169.552 27.1385 173.25 30.7918 176.651 34.7121H176.653C192.493 52.9364 201.198 76.262 201.162 100.388Z" fill="#F2F2F2"/>
<path d="M29.6913 117.729C20.1098 112.037 12.8781 101.4 13.8169 90.3112C22.5768 98.6791 34.0198 103.685 46.1215 104.443C50.7896 104.718 56.0105 104.539 59.4468 107.705C61.585 109.674 62.5803 112.64 62.7436 115.539C62.9068 118.439 62.3248 121.323 61.7458 124.169L61.9451 124.867C50.795 124.908 39.2728 123.421 29.6913 117.729Z" fill="#E6E6E6"/>
<path d="M14.0506 90.2993C17.8897 98.676 24.2756 105.632 32.3014 110.181C34.0268 111.144 35.8611 111.972 37.8103 112.356C39.7132 112.716 41.6779 112.561 43.5003 111.906C45.2118 111.33 46.8956 110.543 48.7176 110.393C50.6381 110.234 52.416 110.973 53.8129 112.268C55.522 113.853 56.5587 115.956 57.5009 118.048C58.547 120.371 59.5966 122.8 61.6023 124.47C61.8453 124.673 61.5165 125.037 61.2739 124.835C57.7843 121.929 57.2147 117.062 54.4254 113.64C53.1238 112.043 51.3322 110.827 49.2037 110.86C47.3425 110.888 45.6054 111.698 43.8776 112.296C42.0633 112.924 40.2458 113.219 38.3304 112.943C36.3711 112.66 34.5005 111.902 32.758 110.986C28.8222 108.881 25.2426 106.17 22.1503 102.955C18.6008 99.3041 15.703 95.0745 13.5825 90.4488C13.4513 90.1625 13.9203 90.0148 14.0506 90.2993H14.0506Z" fill="white"/>
<path d="M29.6307 108.868C28.6834 110.108 27.3252 110.972 25.7986 111.305C24.272 111.638 22.6765 111.419 21.2969 110.687C21.0183 110.537 21.2375 110.098 21.5165 110.248C22.7998 110.932 24.2861 111.136 25.707 110.823C27.128 110.51 28.3899 109.7 29.2652 108.54C29.4557 108.288 29.8201 108.617 29.6307 108.868L29.6307 108.868Z" fill="white"/>
<path d="M42.6711 112.313C42.2724 109.149 40.6938 106.252 38.25 104.199C38.0077 103.996 38.3364 103.631 38.5784 103.834C41.1175 105.976 42.7542 108.994 43.1618 112.286C43.2004 112.6 42.7095 112.625 42.6711 112.313V112.313Z" fill="white"/>
<path d="M19.2101 99.0739C19.6769 98.6702 20.0359 98.1571 20.2548 97.5807C20.4738 97.0043 20.5459 96.3827 20.4647 95.7716C20.4221 95.4584 20.9131 95.4343 20.9554 95.7455C21.042 96.421 20.9615 97.1075 20.721 97.7448C20.4805 98.3822 20.0873 98.9511 19.5757 99.4017C19.531 99.4483 19.4703 99.4761 19.4058 99.4795C19.3414 99.4829 19.278 99.4617 19.2287 99.4202C19.1805 99.3766 19.1515 99.3157 19.1481 99.2509C19.1446 99.186 19.1669 99.1224 19.2101 99.0739V99.0739Z" fill="white"/>
<path d="M44.8316 68.8276C44.8638 69.0224 44.8959 69.2172 44.9318 69.4139C45.378 72.031 46.0365 74.6076 46.9007 77.1183C46.9644 77.3135 47.032 77.5103 47.1012 77.7033C49.248 83.7299 52.4971 89.3064 56.6835 94.1493C58.3512 96.0748 60.1632 97.8709 62.1038 99.5221C64.7841 101.802 67.872 104.062 69.5904 107.006C69.7732 107.311 69.9368 107.627 70.0804 107.952L62.7818 124.57C62.7462 124.599 62.7143 124.631 62.6787 124.66L62.4177 125.337C62.3116 125.259 62.2033 125.175 62.0973 125.097C62.0356 125.052 61.9755 125.003 61.9138 124.958C61.8732 124.927 61.8326 124.896 61.7942 124.87C61.7806 124.859 61.7671 124.849 61.7573 124.84C61.7189 124.814 61.6859 124.786 61.6513 124.762C61.0446 124.298 60.4401 123.828 59.8379 123.354C59.8341 123.352 59.8341 123.352 59.8319 123.347C55.2523 119.72 50.9357 115.68 47.3708 111.115C47.2636 110.978 47.1525 110.839 47.0486 110.694C45.4531 108.627 44.0296 106.433 42.7921 104.135C42.1186 102.874 41.5095 101.581 40.967 100.259C39.572 96.8397 38.7245 93.2231 38.4555 89.5414C37.9204 82.2019 39.7431 74.7732 44.4665 69.2463C44.5875 69.105 44.7068 68.9672 44.8316 68.8276Z" fill="#E6E6E6"/>
<path d="M45.0264 68.9574C43.0387 77.9527 43.9412 87.3444 47.6058 95.7986C48.402 97.6051 49.3671 99.3684 50.6918 100.846C51.9941 102.277 53.6566 103.334 55.5064 103.906C57.2204 104.475 59.0396 104.858 60.5854 105.833C62.2146 106.86 63.1881 108.519 63.5221 110.392C63.9308 112.685 63.4899 114.987 62.9802 117.223C62.4144 119.706 61.7873 122.277 62.3811 124.816C62.4531 125.123 61.9706 125.217 61.8988 124.909C60.8656 120.492 63.3465 116.264 63.1839 111.855C63.1081 109.798 62.4106 107.751 60.6918 106.498C59.1888 105.402 57.3131 105.005 55.5727 104.444C53.7451 103.855 52.116 102.999 50.7534 101.627C49.3595 100.224 48.3232 98.4946 47.4843 96.7164C45.6121 92.6699 44.3889 88.3548 43.8597 83.9292C43.2276 78.8815 43.4653 73.7631 44.5624 68.7955C44.6305 68.488 45.094 68.652 45.0264 68.9574Z" fill="white"/>
<path d="M46.2654 93.1457C44.7608 93.5669 43.1552 93.4404 41.7354 92.7891C40.3155 92.1377 39.1739 91.0038 38.5143 89.5899C38.3819 89.3033 38.8218 89.0844 38.9544 89.3713C39.5662 90.6891 40.6297 91.7453 41.9531 92.3491C43.2765 92.953 44.7726 93.0648 46.1713 92.6643C46.4754 92.5777 46.5678 93.0596 46.2654 93.1457H46.2654Z" fill="white"/>
<path d="M54.5994 103.732C56.1892 100.967 56.6764 97.7052 55.9637 94.5973C55.8929 94.2894 56.3753 94.1959 56.4461 94.5034C57.1816 97.7389 56.6678 101.132 55.007 104.006C54.8485 104.28 54.4417 104.005 54.5994 103.732Z" fill="white"/>
<path d="M43.8532 79.0639C44.4694 79.022 45.0655 78.8281 45.5881 78.4995C46.1106 78.1708 46.5432 77.7178 46.8469 77.1811C47.0018 76.9054 47.4084 77.1812 47.2545 77.4551C46.9161 78.0465 46.4378 78.5463 45.8613 78.9106C45.2848 79.275 44.6277 79.4929 43.9473 79.5453C43.8836 79.5556 43.8184 79.5413 43.7648 79.5054C43.7113 79.4694 43.6735 79.4144 43.6591 79.3516C43.647 79.2878 43.6606 79.2218 43.6969 79.1679C43.7333 79.114 43.7894 79.0767 43.8532 79.0639V79.0639Z" fill="white"/>
<path d="M69.6732 23.2671L81.9839 167.103L57.3625 168.951V25.0971C60.2964 23.1595 64.5079 22.8563 69.6732 23.2671Z" fill="#CCCCCC"/>
<path d="M130.441 23.2671L118.13 167.103L142.752 168.951V25.0971C139.818 23.1595 135.606 22.8563 130.441 23.2671Z" fill="#CCCCCC"/>
<path d="M139.065 174.895H60.7873C59.5321 174.894 58.3287 174.396 57.4412 173.51C56.5536 172.624 56.0544 171.423 56.053 170.17V27.2081C56.0544 25.9553 56.5537 24.7542 57.4412 23.8684C58.3287 22.9826 59.5321 22.4843 60.7873 22.4828H139.065C140.32 22.4843 141.524 22.9826 142.411 23.8684C143.299 24.7542 143.798 25.9553 143.799 27.2081V170.17C143.798 171.423 143.299 172.624 142.411 173.51C141.524 174.396 140.32 174.894 139.065 174.895ZM60.7873 24.0514C59.9488 24.0523 59.1449 24.3852 58.5519 24.977C57.959 25.5688 57.6255 26.3712 57.6246 27.2081V170.17C57.6255 171.007 57.959 171.809 58.5519 172.401C59.1448 172.993 59.9487 173.326 60.7873 173.327H139.065C139.904 173.326 140.708 172.993 141.3 172.401C141.893 171.809 142.227 171.007 142.228 170.17V27.2081C142.227 26.3712 141.893 25.5688 141.3 24.977C140.708 24.3852 139.904 24.0523 139.065 24.0514L60.7873 24.0514Z" fill="#CCCCCC"/>
<path d="M143.014 46.2728H56.8389V47.8414H143.014V46.2728Z" fill="#CCCCCC"/>
<path d="M143.014 72.4156H56.8389V73.9842H143.014V72.4156Z" fill="#CCCCCC"/>
<path d="M84.8033 23.2671H83.2317V94.637H84.8033V23.2671Z" fill="#CCCCCC"/>
<path d="M116.621 23.2671H115.049V94.637H116.621V23.2671Z" fill="#CCCCCC"/>
<path d="M152.836 179.209H49.6356C47.7599 179.209 45.9611 178.465 44.6348 177.142C43.3086 175.818 42.5635 174.023 42.5635 172.15C42.5635 170.278 43.3086 168.483 44.6348 167.159C45.9611 165.836 47.7599 165.092 49.6356 165.092H152.836C154.712 165.092 156.51 165.836 157.837 167.159C159.163 168.483 159.908 170.278 159.908 172.15C159.908 174.023 159.163 175.818 157.837 177.142C156.51 178.465 154.712 179.209 152.836 179.209Z" fill="#CCCCCC"/>
<path d="M143.014 90.977H57.3625V96.2056H143.014V90.977Z" fill="#CCCCCC"/>
<path d="M85.0472 107.617L84.9385 107.565C79.0997 104.75 71.4536 104.752 60.146 107.574L60.0252 107.604L59.989 107.485C58.7928 103.57 57.4378 99.1366 59.9834 96.9552C60.0191 90.5541 65.6448 85.3563 72.5549 85.3563C79.4635 85.3563 85.0885 90.5514 85.1262 96.9509C88.9131 99.8406 87.1083 104.111 85.1083 107.513L85.0472 107.617Z" fill="#2F2E41"/>
<path d="M120.934 93.9103C120.83 94.429 120.612 94.9185 120.298 95.3443C119.983 95.7701 119.579 96.1218 119.113 96.3747C118.647 96.6276 118.132 96.7756 117.603 96.8081C117.073 96.8406 116.544 96.757 116.05 96.563L95.4162 117.259L93.5752 110.833L114.069 91.6138C114.45 90.8084 115.114 90.1706 115.935 89.8213C116.756 89.4719 117.677 89.4353 118.524 89.7184C119.37 90.0015 120.083 90.5845 120.527 91.3571C120.971 92.1297 121.116 93.0382 120.934 93.9103L120.934 93.9103Z" fill="#FFB6B6"/>
<path d="M69.9372 113.834C69.9372 113.834 68.0651 118.069 72.6844 120.68C77.3037 123.291 93.4483 119.683 96.0679 119.18C98.6876 118.676 108.472 104.062 108.472 104.062L107.088 96.8949L94.1122 108.138L69.9372 113.834Z" fill="#4B5229"/>
<path d="M66.5301 137.25L66.792 142.217C66.792 142.217 66.0189 146.617 66.6547 147.566C67.2858 148.511 84.5053 148.63 84.5053 148.63C84.5053 148.63 85.6431 142.509 86.6231 137.15L66.5301 137.25Z" fill="#FFB6B6"/>
<path d="M116.039 202.926L119.639 202.2L118.608 187.687L113.295 188.759L116.039 202.926Z" fill="#FFB6B6"/>
<path d="M121.195 184.04L124.542 182.538L120.2 168.652L115.261 170.869L121.195 184.04Z" fill="#FFB6B6"/>
<path d="M124.11 176.216L117.809 179.777L102.268 154.852C91.3582 162.188 80.6899 165.701 69.9352 167.575C66.2991 168.222 62.5919 167.894 61.8938 164.2C61.8612 164.028 61.8352 163.854 61.8158 163.68C61.3864 159.645 66.4148 154.473 67.054 149.537L80.8159 148.712L82.5129 150.884L98.4281 141.118C101.629 139.154 105.838 140.216 107.831 143.491C107.936 143.664 108.033 143.841 108.123 144.022L124.11 176.216Z" fill="#2F2E41"/>
<path d="M120.253 192.983L113.043 193.652L99.9692 166.965C87.0049 169.19 74.7742 169.903 64.1952 167.211C60.6134 166.312 58.424 162.621 59.305 158.966C59.3461 158.795 59.3938 158.626 59.4478 158.459C60.7139 154.604 64.0281 151.876 66.6393 147.635L85.7122 147.924L83.5819 155.261L102.11 152.868C105.836 152.386 109.239 155.078 109.71 158.88C109.735 159.081 109.752 159.282 109.759 159.485L120.253 192.983Z" fill="#2F2E41"/>
<path d="M73.9773 103.823C78.2546 103.823 81.722 100.362 81.722 96.0931C81.722 91.824 78.2546 88.3633 73.9773 88.3633C69.7001 88.3633 66.2327 91.824 66.2327 96.0931C66.2327 100.362 69.7001 103.823 73.9773 103.823Z" fill="#FFB6B6"/>
<path d="M69.4372 106.613L76.5383 107.447C76.8378 107.482 77.1188 107.61 77.3422 107.812C77.5656 108.014 77.7203 108.281 77.7847 108.575L78.914 113.733L85.9537 122.007C85.9537 122.007 88.4817 126.738 87.5337 132.099C86.5858 137.461 86.1692 141.445 86.1692 141.445C86.1692 141.445 67.285 148.512 66.6531 147.565C66.0211 146.619 65.816 142.322 65.816 142.322L63.2881 114.252C63.2881 114.252 66.132 109.522 67.712 109.522C68.7316 109.487 68.6008 107.197 69.4372 106.613Z" fill="#4B5229"/>
<path d="M86.3609 143.171C87.3567 143.171 88.164 142.204 88.164 141.011C88.164 139.818 87.3567 138.851 86.3609 138.851C85.3651 138.851 84.5579 139.818 84.5579 141.011C84.5579 142.204 85.3651 143.171 86.3609 143.171Z" fill="#4B5229"/>
<path d="M114.252 199.189L119.741 196.444L120.775 198.853L127.715 200.253C128.058 200.322 128.37 200.499 128.605 200.757C128.84 201.016 128.986 201.342 129.022 201.689C129.058 202.037 128.981 202.386 128.804 202.687C128.627 202.988 128.358 203.224 128.036 203.362L121.331 206.231L119.152 204.343L119.724 206.918L117.195 208L114.252 199.189Z" fill="#2F2E41"/>
<path d="M119.625 182.884L125.064 180.043L126.14 182.433L133.104 183.711C133.448 183.774 133.763 183.946 134.002 184.2C134.242 184.454 134.394 184.778 134.436 185.125C134.478 185.471 134.408 185.822 134.236 186.126C134.064 186.43 133.799 186.671 133.48 186.814L126.826 189.8L124.614 187.951L125.231 190.516L122.723 191.642L119.625 182.884Z" fill="#2F2E41"/>
<path d="M69.5525 93.6685C67.5064 93.6718 65.5094 93.043 63.8357 91.8683L63.7798 91.8293V91.7613C63.782 89.7859 64.5692 87.8921 65.9687 86.4953C67.3682 85.0985 69.2656 84.3128 71.2448 84.3105H74.3879C76.3671 84.3128 78.2645 85.0985 79.664 86.4953C81.0635 87.8921 81.8507 89.7859 81.8529 91.7613C81.8508 92.2134 81.672 92.6468 81.3545 92.9693C81.0369 93.2917 80.6058 93.4777 80.153 93.4876L69.7291 93.6669C69.6703 93.668 69.6112 93.6685 69.5525 93.6685Z" fill="#2F2E41"/>
<path d="M82.3768 90.3303C83.3791 89.7528 83.5466 88.1696 82.7509 86.7942C81.9553 85.4187 80.4978 84.7719 79.4956 85.3495C78.4934 85.927 78.3259 87.5102 79.1215 88.8856C79.9172 90.261 81.3746 90.9079 82.3768 90.3303Z" fill="#2F2E41"/>
<path d="M66.7021 88.7959C67.8273 87.6729 68.0761 86.1004 67.2578 85.2836C66.4395 84.4668 64.8639 84.7151 63.7388 85.8382C62.6136 86.9612 62.3648 88.5337 63.1831 89.3505C64.0014 90.1672 65.577 89.9189 66.7021 88.7959Z" fill="#2F2E41"/>
<path d="M135.244 159.471H127.514C127.34 159.471 127.167 159.508 127.009 159.581C126.851 159.655 126.71 159.761 126.598 159.894C126.313 159.842 126.019 159.858 125.741 159.941C125.464 160.023 125.209 160.171 125 160.371C124.79 160.571 124.631 160.817 124.536 161.09C124.44 161.364 124.411 161.655 124.45 161.942C124.489 162.229 124.596 162.502 124.762 162.739C124.928 162.977 125.148 163.172 125.403 163.308C125.659 163.444 125.944 163.518 126.233 163.523C126.523 163.528 126.81 163.465 127.071 163.338L127.712 165.417C127.788 165.664 127.941 165.879 128.149 166.033C128.356 166.186 128.608 166.268 128.866 166.268H133.892C134.151 166.268 134.402 166.186 134.61 166.033C134.818 165.879 134.971 165.664 135.047 165.417L136.399 161.031C136.454 160.851 136.467 160.66 136.435 160.474C136.403 160.288 136.328 160.112 136.216 159.961C136.104 159.809 135.957 159.686 135.788 159.601C135.62 159.516 135.433 159.471 135.244 159.471ZM126.272 163.001C125.924 163.001 125.591 162.863 125.346 162.618C125.1 162.373 124.962 162.04 124.962 161.693C124.962 161.347 125.1 161.014 125.346 160.769C125.591 160.524 125.924 160.386 126.272 160.386C126.295 160.386 126.318 160.392 126.341 160.393C126.289 160.604 126.296 160.824 126.36 161.031L126.913 162.826C126.718 162.939 126.497 162.999 126.272 163.001Z" fill="#3F3D56"/>
<path d="M100.726 153.796C100.198 153.845 99.6658 153.778 99.1668 153.599C98.6678 153.42 98.2142 153.134 97.8378 152.762C97.4615 152.389 97.1716 151.939 96.9885 151.442C96.8055 150.945 96.7338 150.415 96.7784 149.888L70.9944 136.097L76.634 132.493L100.96 146.573C101.843 146.706 102.645 147.158 103.216 147.843C103.787 148.528 104.086 149.398 104.057 150.288C104.029 151.179 103.674 152.028 103.059 152.674C102.445 153.321 101.615 153.72 100.726 153.796Z" fill="#FFB6B6"/>
<path d="M66.9709 110.753C66.9709 110.753 62.3698 110.178 61.1888 115.344C60.0079 120.51 68.1027 134.911 69.3378 137.271C70.5729 139.631 87.4065 144.793 87.4065 144.793L93.8884 141.414L79.3748 132.233L66.9709 110.753Z" fill="#4B5229"/>
<path d="M99.4022 89.4085H100.974C101.738 89.4085 102.471 89.7114 103.011 90.2507C103.551 90.79 103.855 91.5215 103.855 92.2842H96.521C96.521 91.5215 96.8246 90.79 97.3649 90.2507C97.9052 89.7114 98.6381 89.4085 99.4022 89.4085Z" fill="#CCCCCC"/>
<path d="M49.5679 35.7544C58.1667 35.7544 65.1375 28.797 65.1375 20.2146C65.1375 11.6322 58.1667 4.67482 49.5679 4.67482C40.969 4.67482 33.9983 11.6322 33.9983 20.2146C33.9983 28.797 40.969 35.7544 49.5679 35.7544Z" fill="#933D03"/>
<path d="M97.2383 19.4048C93.1178 15.0905 88.3323 11.1549 82.6672 9.07509C81.0892 8.4933 79.4529 8.08291 77.7868 7.851C77.7734 7.84917 77.7607 7.85188 77.7474 7.8508C77.7203 7.84383 77.6928 7.83844 77.6651 7.83467C75.3348 7.53838 72.9696 7.6809 70.6919 8.25485C69.5781 8.53382 68.4915 8.91162 67.4452 9.38374C66.3951 9.89505 65.3776 10.4706 64.3986 11.107C62.3263 12.3451 60.0447 13.1946 57.6663 13.6137C56.4725 13.8282 55.2633 13.9467 54.0505 13.9679C52.9981 13.989 52.0057 14.0255 51.0086 14.405C49.9435 14.8047 48.9868 15.4474 48.2148 16.2817C47.4428 17.116 46.8769 18.1189 46.5621 19.2103C46.5379 19.3075 46.5452 19.4098 46.583 19.5026C46.6208 19.5954 46.6872 19.6738 46.7726 19.7264C47.0423 19.9192 47.3052 20.138 47.5886 20.3097C47.8407 20.4249 48.1099 20.4982 48.3857 20.5267C48.8362 20.6216 49.2873 20.7137 49.739 20.803C51.403 21.1321 53.0739 21.4234 54.7517 21.6769C58.1467 22.1899 61.56 22.5512 64.9916 22.7609C71.8662 23.1765 78.7644 22.9696 85.6016 22.1427C89.4441 21.6781 93.2606 21.0193 97.0362 20.1687C97.1127 20.1464 97.182 20.1047 97.2376 20.0478C97.2932 19.9909 97.3331 19.9205 97.3534 19.8437C97.3737 19.7668 97.3738 19.686 97.3537 19.6091C97.3335 19.5322 97.2937 19.4618 97.2383 19.4048Z" fill="#E6E6E6"/>
<path d="M50.3069 29.7948C48.7288 29.213 47.0926 28.8026 45.4264 28.5707C45.413 28.5689 45.4004 28.5716 45.387 28.5705C45.3599 28.5635 45.3324 28.5582 45.3047 28.5544C42.9745 28.2581 40.6092 28.4006 38.3316 28.9746C37.2178 29.2535 36.1312 29.6313 35.0848 30.1034C34.0347 30.6148 33.0173 31.1903 32.0382 31.8267C29.9659 33.0648 27.6843 33.9143 25.306 34.3334C24.1121 34.548 22.903 34.6664 21.6901 34.6876C20.6378 34.7087 19.6453 34.7452 18.6483 35.1247C17.5832 35.5244 16.6265 36.1671 15.8545 37.0014C15.0825 37.8357 14.5165 38.8386 14.2018 39.93C14.1775 40.0271 14.1848 40.1295 14.2227 40.2223C14.2605 40.3151 14.3269 40.3934 14.4122 40.4461C14.6819 40.6389 14.9449 40.8577 15.2283 41.0294C15.4803 41.1446 15.7496 41.2179 16.0253 41.2464C16.4759 41.3413 16.927 41.4334 17.3787 41.5227C19.0426 41.8518 20.7135 42.1431 22.3913 42.3966C25.7863 42.9095 29.1996 43.2709 32.6313 43.4806C39.5059 43.8962 46.4041 43.6893 53.2412 42.8623C57.0838 42.3978 60.9002 41.739 64.6759 40.8884C64.7523 40.8661 64.8217 40.8244 64.8773 40.7675C64.9328 40.7105 64.9727 40.6402 64.993 40.5634C65.0134 40.4865 65.0135 40.4057 64.9933 40.3288C64.9731 40.2519 64.9334 40.1815 64.8779 40.1245C60.7575 35.8103 55.972 31.8746 50.3069 29.7948Z" fill="#E6E6E6"/>
<path d="M162.586 145.641L150.613 129.942L141.165 135.274L161.185 159.002L162.586 145.641Z" fill="#3F3D56"/>
<path d="M190.166 120.121C190.432 126.7 191.453 133.227 193.21 139.574C192.833 140.46 192.443 141.34 192.042 142.214C190.522 145.525 188.82 148.748 186.945 151.872C181.684 160.642 175.117 168.562 167.47 175.361C166.642 176.095 165.803 176.818 164.953 177.528C160.105 170.856 157.488 163.495 156.453 155.918C156.322 154.956 156.215 153.984 156.134 153.017V153.011C155.935 150.661 155.871 148.3 155.943 145.942C155.945 145.754 155.95 145.563 155.958 145.372C156.05 142.852 156.278 140.327 156.621 137.825V137.822C156.66 137.535 156.699 137.247 156.744 136.96C156.87 136.097 157.011 135.234 157.166 134.377C158.065 129.431 159.32 124.557 160.922 119.792V119.789C160.966 119.65 161.011 119.515 161.061 119.379C161.234 118.861 161.409 118.349 161.59 117.836C161.601 117.796 161.615 117.757 161.632 117.719C161.865 117.049 162.103 116.385 162.347 115.726C162.412 115.543 162.48 115.36 162.551 115.177C162.826 114.443 163.106 113.713 163.392 112.995C163.481 112.764 163.573 112.534 163.664 112.307C163.735 112.132 163.803 111.957 163.876 111.784V111.781C164.293 110.754 164.715 109.747 165.142 108.759C166.339 105.983 167.57 103.371 168.769 100.964L168.772 100.961C173.751 90.9927 178.277 84.5198 178.277 84.5198L195.274 90.0098C193.247 93.5992 191.678 98.8931 190.818 105.139C190.157 110.103 189.938 115.116 190.166 120.118L190.166 120.121Z" fill="#3F3D56"/>
<path d="M161.917 118.524C161.818 118.291 161.705 118.064 161.59 117.836C160.992 116.682 160.223 115.624 159.308 114.699C159.172 114.56 159.031 114.422 158.884 114.291C157.306 112.841 155.388 111.811 153.306 111.296C151.223 110.782 149.045 110.799 146.971 111.348L146.961 111.353L146.882 111.374L146.901 111.463C146.979 111.877 147.093 112.283 147.241 112.678C147.281 112.785 147.325 112.887 147.37 112.989C147.388 113.036 147.411 113.078 147.432 113.125C147.432 113.125 147.43 113.128 147.435 113.128C147.435 113.13 147.438 113.133 147.438 113.136C147.487 113.232 147.535 113.332 147.587 113.426C147.48 113.324 147.377 113.219 147.278 113.112C147.181 113.013 147.092 112.908 147.003 112.804C146.698 112.448 146.422 112.069 146.178 111.669L146.136 111.598L146.063 111.627C145.074 111.969 144.131 112.43 143.255 113L143.16 113.062C142.491 113.501 141.737 113.794 140.947 113.923C140.157 114.052 139.348 114.013 138.574 113.81C137.353 113.496 136.081 113.439 134.836 113.642C133.592 113.845 132.404 114.304 131.347 114.989C130.647 115.445 130.014 115.996 129.467 116.626C129.42 116.681 129.372 116.738 129.325 116.793C129.226 116.913 129.131 117.036 129.04 117.162C128.055 118.475 127.451 120.033 127.293 121.666L127.287 121.726L127.337 121.76C128.223 122.367 129.226 122.783 130.281 122.984C129.618 123.076 128.947 123.093 128.28 123.033H128.277C127.975 123.008 127.674 122.967 127.376 122.908L127.321 122.897H127.319L127.251 122.884L127.261 123.01C127.339 124.607 127.843 126.155 128.72 127.493L128.746 127.53C128.756 127.543 128.765 127.557 128.773 127.572C129.144 128.139 129.453 128.745 129.695 129.378C130.307 130.952 130.442 132.672 130.082 134.322C129.675 136.087 129.811 137.933 130.47 139.62C131.13 141.307 132.284 142.757 133.781 143.78C135.096 144.683 136.628 145.22 138.22 145.336C138.438 145.354 138.658 145.365 138.878 145.365C140.137 145.368 141.384 145.109 142.537 144.604L142.579 144.588L142.589 144.541C142.811 143.827 143.123 143.143 143.517 142.507C143.388 143.009 143.323 143.524 143.323 144.042V144.214L143.472 144.128C143.6 144.052 143.731 143.971 143.849 143.895C144.557 143.434 145.198 142.878 145.753 142.243C145.971 141.992 146.191 141.749 146.421 141.506L146.424 141.503C146.872 141.027 147.346 140.562 147.838 140.118C148.886 139.179 150.007 138.325 151.191 137.564C152.374 136.805 153.611 136.134 154.892 135.556H154.895C155.039 135.488 155.186 135.422 155.33 135.36C155.967 135.083 156.582 134.754 157.166 134.377C157.187 134.364 157.205 134.353 157.223 134.34C159.755 132.685 161.617 130.188 162.476 127.291C163.336 124.395 163.138 121.288 161.917 118.524L161.917 118.524Z" fill="#4B5229"/>
<path opacity="0.15" d="M130.514 138.034C130.442 138.352 130.388 138.673 130.351 138.997C129.864 137.459 129.793 135.819 130.147 134.245C130.201 134.004 130.242 133.76 130.274 133.515C130.758 134.973 130.841 136.533 130.514 138.034Z" fill="black"/>
<path opacity="0.15" d="M130.712 126.694C129.936 126.801 129.149 126.805 128.372 126.705C128.169 126.322 127.993 125.925 127.847 125.516C128.712 126.099 129.687 126.5 130.712 126.694Z" fill="black"/>
<path opacity="0.15" d="M128.31 122.949C128.024 123.68 127.833 124.445 127.744 125.225C127.505 124.482 127.364 123.712 127.324 122.933L127.318 122.807L127.441 122.831C127.729 122.885 128.019 122.924 128.31 122.949Z" fill="black"/>
<path opacity="0.15" d="M131.415 114.912C132.47 114.225 133.658 113.765 134.901 113.562C136.145 113.359 137.417 113.416 138.637 113.731C139.412 113.935 140.221 113.975 141.011 113.846C141.802 113.717 142.557 113.424 143.226 112.985L143.321 112.922C144.196 112.351 145.139 111.889 146.127 111.547L146.203 111.521L146.244 111.589C146.635 112.233 147.108 112.824 147.652 113.347C147.321 112.732 147.09 112.07 146.966 111.383L146.948 111.293L147.038 111.269C148.982 110.756 151.021 110.708 152.988 111.13C154.955 111.553 156.793 112.434 158.354 113.7C159.915 114.967 161.154 116.584 161.969 118.42C162.784 120.255 163.153 122.257 163.046 124.262C162.633 122.628 161.9 121.091 160.888 119.741C159.876 118.392 158.606 117.256 157.151 116.4C155.696 115.544 154.086 114.984 152.413 114.754C150.74 114.524 149.038 114.627 147.405 115.058L147.315 115.082L147.333 115.172C147.457 115.859 147.688 116.521 148.019 117.136C147.475 116.613 147.002 116.022 146.611 115.377L146.57 115.309L146.494 115.335C145.506 115.678 144.564 116.14 143.688 116.711L143.593 116.773C142.924 117.213 142.169 117.506 141.378 117.635C140.588 117.763 139.779 117.724 139.004 117.52C136.977 116.995 134.829 117.188 132.928 118.066C131.027 118.945 129.49 120.454 128.58 122.337C128.174 122.143 127.781 121.923 127.403 121.681L127.351 121.648L127.357 121.588C127.488 120.242 127.92 118.943 128.623 117.788C129.325 116.632 130.279 115.649 131.415 114.912Z" fill="black"/>
<path d="M228.79 48.1132L228.542 47.9485L228.361 48.1838C226.962 49.9415 225.849 51.908 225.063 54.0111C225.172 51.5883 225.596 49.19 226.326 46.8767L226.404 46.6336L226.179 46.5055C223.248 44.8491 220.126 43.5568 216.881 42.6572L216.527 42.5631C214.04 41.882 211.724 40.6853 209.732 39.0511C207.739 37.4168 206.114 35.3817 204.963 33.0785C202.287 27.7926 198.059 23.4469 192.844 20.6214C187.629 17.7959 181.675 16.6249 175.776 17.2647H175.773C175.71 17.2699 175.645 17.2778 175.582 17.2856C175.475 17.2961 175.37 17.3092 175.265 17.3222C175.05 17.351 174.841 17.3797 174.631 17.4111C174.453 17.4373 174.272 17.466 174.094 17.4974C174 17.5105 173.908 17.5261 173.817 17.5444C173.725 17.5601 173.631 17.5758 173.539 17.5941H173.536C171.778 17.9261 170.054 18.4206 168.387 19.0712H168.384V19.0738L167.963 19.2385C167.528 19.4163 167.096 19.6045 166.669 19.8032C166.572 19.8476 166.477 19.8947 166.38 19.9391C166.354 19.9522 166.325 19.9653 166.299 19.9809C166.024 20.1117 165.752 20.2476 165.482 20.3914C165.443 20.4097 165.403 20.4306 165.364 20.4515L165.113 20.5848C164.56 20.8829 164.017 21.1992 163.484 21.5338C163.439 21.56 163.397 21.5861 163.353 21.6149C163.305 21.6462 163.256 21.6776 163.208 21.709C163.18 21.7247 163.151 21.7456 163.122 21.7639C163.041 21.8136 162.962 21.8658 162.884 21.9207C162.727 22.0227 162.569 22.1273 162.415 22.2345C162.255 22.3416 162.098 22.4541 161.941 22.5665L161.784 22.6789L161.812 22.8723C161.839 23.0318 161.862 23.1913 161.891 23.3481C161.917 23.505 161.943 23.6592 161.972 23.8135C162.017 24.0723 162.066 24.3285 162.116 24.5769C162.15 24.7416 162.182 24.9036 162.218 25.0631C162.252 25.2278 162.289 25.3925 162.328 25.5572C162.404 25.8971 162.486 26.2265 162.572 26.5506C162.614 26.7127 162.658 26.8748 162.706 27.0343C162.732 27.131 162.758 27.2277 162.787 27.3219C162.808 27.3872 162.829 27.4526 162.85 27.5179C162.855 27.5388 162.86 27.5624 162.868 27.5859C162.874 27.608 162.881 27.6299 162.889 27.6512C162.918 27.748 162.947 27.8421 162.975 27.9336C162.991 27.9833 163.007 28.0329 163.025 28.08C163.062 28.1924 163.101 28.3074 163.14 28.4172C163.182 28.5427 163.227 28.6682 163.271 28.7911C163.282 28.8224 163.292 28.8512 163.303 28.8826C163.311 28.9061 163.319 28.9296 163.329 28.9532C163.339 28.9793 163.35 29.0081 163.36 29.0342C163.405 29.1518 163.449 29.2721 163.497 29.3897C163.512 29.4316 163.528 29.476 163.546 29.5178C163.971 30.5829 164.493 31.6067 165.105 32.5766C164.426 31.9962 163.773 31.381 163.146 30.7309C162.176 29.7257 161.283 28.65 160.474 27.5127C160.408 27.4238 160.343 27.3323 160.283 27.2408C160.16 27.0657 160.039 26.8905 159.921 26.7127C159.796 26.5297 159.675 26.3389 159.557 26.1507C159.479 26.0252 159.4 25.8971 159.324 25.7716C159.248 25.6513 159.177 25.5337 159.109 25.4134L158.905 25.0631H158.902V25.0657L158.614 25.3481C158.499 25.4605 158.384 25.5729 158.271 25.6853C154.751 29.2206 152.201 33.6005 150.866 38.4038L150.827 38.5476L150.788 38.6966C150.712 38.9632 150.636 39.222 150.555 39.4861V39.4887C150.476 39.7501 150.392 40.0116 150.303 40.2678C150.222 40.5109 150.138 40.7514 150.049 40.9919C150.02 41.073 149.989 41.154 149.955 41.235C149.9 41.3919 149.84 41.5461 149.779 41.703C149.751 41.7736 149.722 41.8468 149.693 41.9174C149.622 42.0899 149.551 42.2625 149.481 42.4324C149.47 42.4585 149.457 42.4873 149.444 42.5134C149.423 42.5657 149.4 42.618 149.379 42.6677C149.324 42.7932 149.266 42.9213 149.211 43.0467C149.172 43.1278 149.135 43.2114 149.098 43.2925C149.083 43.3291 149.064 43.3657 149.049 43.4023C148.952 43.6114 148.852 43.818 148.747 44.0219C148.629 44.2624 148.509 44.5029 148.381 44.7382C148.268 44.9578 148.15 45.1722 148.027 45.3865C147.815 45.7656 147.592 46.1421 147.362 46.5081C147.273 46.6492 147.184 46.7904 147.092 46.9316C147.071 46.9656 147.05 46.9996 147.029 47.0309C146.953 47.1538 146.875 47.2715 146.793 47.3917C146.738 47.4727 146.683 47.5538 146.628 47.6322C146.537 47.7734 146.44 47.9093 146.34 48.0427C146.314 48.0845 146.285 48.1237 146.256 48.1629C146.11 48.3668 145.963 48.5655 145.814 48.7642C145.809 48.7668 145.809 48.7694 145.806 48.772C145.801 48.772 145.801 48.7747 145.798 48.7773C145.733 48.8635 145.667 48.9498 145.599 49.0335C145.51 49.1563 145.413 49.2766 145.316 49.3942C145.159 49.5929 144.994 49.7942 144.826 49.9903C144.821 49.9955 144.818 50.0008 144.813 50.0034C143.945 51.0211 143.005 51.9752 142 52.8582C141.982 52.8738 141.969 52.8895 141.95 52.9026C141.809 53.0255 141.667 53.1483 141.521 53.2686C141.46 53.3183 141.4 53.3679 141.34 53.4176C141.24 53.5013 141.138 53.5849 141.039 53.6607C141.027 53.6728 141.014 53.6833 140.999 53.6921C140.91 53.7653 140.824 53.8333 140.735 53.9013C140.628 53.9875 140.52 54.0686 140.41 54.1496C139.892 54.5418 139.359 54.9121 138.812 55.2607C138.731 55.3156 138.645 55.3705 138.561 55.4228C138.511 55.4541 138.461 55.4855 138.414 55.5117C138.215 55.6345 138.016 55.7548 137.817 55.8698C137.618 55.9875 137.414 56.0999 137.212 56.2097C136.78 56.445 136.353 56.6907 135.936 56.9469C135.727 57.0776 135.517 57.2083 135.31 57.3417C134.488 57.875 133.696 58.4458 132.935 59.054C132.173 59.6626 131.443 60.3092 130.748 60.9912C130.661 61.0749 130.575 61.1611 130.488 61.25C130.315 61.4199 130.148 61.5925 129.988 61.765C129.731 62.0291 129.485 62.3009 129.241 62.5754C127.957 64.0301 126.82 65.6081 125.847 67.2864C125.358 68.1244 124.914 68.9874 124.516 69.8719C124.215 70.5333 123.94 71.2104 123.691 71.8954C123.526 72.3529 123.372 72.8147 123.228 73.2809C123.157 73.5136 123.089 73.7489 123.023 73.9842C122.801 74.7815 122.615 75.5867 122.463 76.3945C122.34 77.0429 122.24 77.6921 122.164 78.3422C122.125 78.669 122.093 78.9957 122.065 79.3199C121.997 80.1167 121.963 80.9142 121.961 81.7126C121.957 84.1075 122.248 86.4939 122.829 88.8176C122.958 89.33 123.1 89.8398 123.256 90.347C123.335 90.6005 123.419 90.8515 123.503 91.1025C123.715 91.7299 123.95 92.3512 124.207 92.9665C124.362 93.3351 124.524 93.7011 124.694 94.0645C125.776 96.3746 127.157 98.5332 128.801 100.485C129.071 100.807 129.35 101.123 129.637 101.434C129.64 101.434 129.637 101.437 129.637 101.437C130.35 102.213 131.104 102.949 131.897 103.643H131.9C132.217 103.923 132.539 104.194 132.867 104.456C132.869 104.454 132.869 104.456 132.869 104.456C133.199 104.723 133.532 104.979 133.872 105.227C134.043 105.35 134.215 105.473 134.391 105.596C134.734 105.839 135.084 106.074 135.441 106.299H135.444C135.8 106.529 136.162 106.749 136.528 106.958C137.264 107.379 138.019 107.774 138.794 108.132L138.925 108.192L139.059 108.132C140.302 107.574 141.583 107.104 142.893 106.728C143.181 106.644 143.472 106.569 143.76 106.495C144.488 106.315 145.222 106.163 145.96 106.04C145.241 106.401 144.546 106.809 143.881 107.261C143.365 107.609 142.857 107.988 142.346 108.406C142.176 108.545 142.005 108.689 141.835 108.835L141.411 109.201L141.942 109.376C142.136 109.439 142.33 109.502 142.524 109.559C142.788 109.643 143.05 109.719 143.307 109.789C143.868 109.946 144.432 110.085 144.999 110.205C145.138 110.234 145.274 110.263 145.413 110.291C145.683 110.344 145.955 110.396 146.228 110.443C146.239 110.446 146.25 110.448 146.262 110.448C146.545 110.495 146.83 110.54 147.113 110.579C147.639 110.655 148.166 110.715 148.692 110.759C148.75 110.767 148.808 110.77 148.868 110.772C148.996 110.783 149.122 110.793 149.25 110.801C149.533 110.819 149.819 110.832 150.104 110.843C150.125 110.843 150.143 110.846 150.164 110.846C150.308 110.851 150.453 110.856 150.597 110.859C150.597 110.859 150.597 110.861 150.599 110.859C150.743 110.861 150.887 110.864 151.031 110.864H151.828C151.977 110.864 152.126 110.866 152.278 110.866C152.488 110.866 152.7 110.869 152.909 110.872C152.964 110.872 153.022 110.874 153.08 110.874C153.415 110.88 153.75 110.887 154.085 110.895C154.106 110.895 154.127 110.898 154.148 110.898C154.484 110.908 154.819 110.919 155.154 110.934C155.228 110.937 155.301 110.94 155.377 110.945C155.699 110.958 156.021 110.974 156.343 110.992C156.435 110.997 156.529 111.005 156.624 111.01C156.867 111.023 157.113 111.039 157.357 111.057C157.501 111.065 157.643 111.076 157.787 111.089C158.368 111.133 158.947 111.183 159.528 111.24C159.722 111.256 159.916 111.277 160.11 111.298C160.629 111.353 161.149 111.413 161.671 111.478C161.904 111.504 162.137 111.536 162.37 111.567C162.397 111.57 162.423 111.572 162.449 111.578C162.737 111.617 163.023 111.656 163.311 111.698C163.499 111.724 163.688 111.753 163.876 111.781C164.07 111.81 164.264 111.839 164.458 111.873C164.563 111.889 164.667 111.907 164.775 111.925C165.026 111.964 165.28 112.006 165.534 112.053C165.557 112.056 165.58 112.059 165.603 112.064C166.142 112.158 166.684 112.257 167.224 112.364C167.541 112.425 167.855 112.487 168.169 112.553C168.416 112.602 168.662 112.655 168.908 112.707C168.95 112.715 168.992 112.725 169.034 112.736C169.043 112.738 169.053 112.74 169.063 112.741C169.435 112.822 169.809 112.906 170.181 112.994C171.472 113.293 172.762 113.624 174.05 113.988C174.346 114.069 174.642 114.155 174.938 114.241C175.063 114.278 175.187 114.315 175.31 114.351C175.566 114.427 175.82 114.503 176.077 114.584C176.302 114.652 176.53 114.723 176.756 114.796C176.897 114.84 177.038 114.885 177.18 114.932C177.4 115 177.62 115.07 177.837 115.146C178.023 115.204 178.207 115.264 178.39 115.329C178.652 115.415 178.916 115.504 179.178 115.598C179.254 115.624 179.333 115.651 179.409 115.679C179.728 115.789 180.048 115.902 180.368 116.019C180.679 116.132 180.991 116.247 181.3 116.362C181.515 116.443 181.73 116.521 181.942 116.605C182.18 116.696 182.418 116.788 182.654 116.882C182.995 117.015 183.338 117.151 183.678 117.29C183.993 117.415 184.304 117.543 184.619 117.677C184.676 117.7 184.737 117.724 184.794 117.75C185.067 117.862 185.339 117.98 185.609 118.098C185.784 118.171 185.957 118.247 186.13 118.322C186.884 118.652 187.638 118.993 188.39 119.345H188.393C188.865 119.567 189.344 119.779 189.826 119.98C189.938 120.027 190.051 120.074 190.166 120.118C190.358 120.199 190.551 120.275 190.745 120.354C190.871 120.403 190.997 120.453 191.125 120.5C191.311 120.573 191.5 120.644 191.688 120.712C191.887 120.785 192.084 120.858 192.285 120.926C192.356 120.952 192.427 120.976 192.5 121.002C192.733 121.08 192.966 121.159 193.202 121.235C193.226 121.243 193.249 121.25 193.275 121.258C193.522 121.337 193.768 121.415 194.017 121.488C194.036 121.496 194.057 121.502 194.077 121.507C194.344 121.588 194.617 121.666 194.886 121.742C195.284 121.852 195.685 121.956 196.086 122.053C196.159 122.071 196.233 122.09 196.306 122.105C196.521 122.158 196.733 122.207 196.948 122.254C197.176 122.307 197.406 122.354 197.634 122.401C197.864 122.448 198.095 122.495 198.323 122.537C198.446 122.56 198.569 122.584 198.69 122.605L199.012 122.66C199.234 122.699 199.457 122.733 199.682 122.769C199.688 122.769 199.695 122.77 199.701 122.772C199.955 122.811 200.206 122.848 200.46 122.879C200.704 122.913 200.947 122.942 201.191 122.971C201.241 122.976 201.293 122.981 201.345 122.986C201.547 123.01 201.749 123.033 201.951 123.052C202.008 123.057 202.066 123.062 202.123 123.067C202.322 123.086 202.522 123.104 202.721 123.117C202.761 123.122 202.801 123.125 202.841 123.125C203.019 123.141 203.197 123.154 203.375 123.161C203.501 123.172 203.624 123.177 203.75 123.185C203.815 123.188 203.878 123.19 203.944 123.193C204.117 123.203 204.29 123.208 204.465 123.214C204.677 123.222 204.889 123.227 205.099 123.232C205.353 123.237 205.61 123.24 205.864 123.24H205.869C206.118 123.24 206.369 123.237 206.618 123.232H206.712L206.987 123.224C207.129 123.222 207.27 123.216 207.409 123.211C207.676 123.201 207.941 123.188 208.205 123.172C208.31 123.167 208.418 123.159 208.522 123.154C208.57 123.151 208.619 123.146 208.666 123.143C208.831 123.133 208.994 123.122 209.159 123.109C209.329 123.096 209.502 123.08 209.672 123.062C209.892 123.041 210.112 123.018 210.332 122.994C210.505 122.976 210.678 122.955 210.848 122.934C210.871 122.932 210.894 122.928 210.916 122.924C211.081 122.905 211.246 122.884 211.409 122.861C211.603 122.835 211.794 122.806 211.985 122.777C212.006 122.775 212.024 122.772 212.045 122.769C212.375 122.717 212.708 122.665 213.041 122.605C213.389 122.542 213.737 122.474 214.083 122.403C214.212 122.377 214.337 122.348 214.466 122.322C214.536 122.307 214.61 122.294 214.678 122.278C214.785 122.254 214.89 122.231 214.995 122.205C215.013 122.202 215.034 122.197 215.052 122.194C215.199 122.163 215.343 122.126 215.49 122.09C215.783 122.019 216.071 121.946 216.359 121.867C216.488 121.836 216.616 121.802 216.739 121.768C216.776 121.758 216.812 121.747 216.847 121.737C217.378 121.588 217.906 121.43 218.429 121.263C218.659 121.19 218.887 121.114 219.115 121.033C219.605 120.866 220.09 120.69 220.571 120.505C220.7 120.458 220.828 120.406 220.956 120.356C221.145 120.281 221.333 120.205 221.519 120.129C221.687 120.058 221.855 119.988 222.025 119.915C222.109 119.881 222.193 119.844 222.276 119.807C222.528 119.698 222.779 119.585 223.028 119.473C223.196 119.394 223.361 119.318 223.526 119.24C223.788 119.115 224.047 118.986 224.306 118.858C224.372 118.824 224.435 118.79 224.498 118.759C224.663 118.675 224.828 118.589 224.995 118.505C225.26 118.364 225.524 118.223 225.786 118.077C225.875 118.03 225.962 117.98 226.051 117.93C226.339 117.768 226.624 117.603 226.907 117.436C227.533 117.062 228.151 116.672 228.759 116.265C228.911 116.166 229.063 116.061 229.212 115.959C229.495 115.766 229.773 115.567 230.05 115.368C230.079 115.347 230.105 115.326 230.134 115.308C230.273 115.206 230.412 115.104 230.551 115C230.839 114.783 231.124 114.563 231.41 114.338C231.415 114.336 231.423 114.328 231.431 114.323C231.559 114.221 231.687 114.119 231.813 114.017C232.203 113.7 232.589 113.379 232.966 113.047C233.152 112.887 233.335 112.723 233.516 112.558C233.652 112.435 233.788 112.312 233.922 112.187C234.192 111.933 234.456 111.682 234.718 111.426C234.849 111.3 234.977 111.17 235.108 111.039C235.237 110.908 235.368 110.778 235.496 110.644C235.54 110.6 235.585 110.553 235.63 110.506C235.76 110.367 235.891 110.226 236.022 110.087C236.135 109.967 236.245 109.842 236.358 109.716C236.546 109.507 236.737 109.298 236.923 109.086C236.933 109.074 236.944 109.063 236.955 109.052C236.965 109.039 236.976 109.029 236.984 109.018H236.981C240.788 104.624 243.617 99.4729 245.28 93.9057C246.944 88.3386 247.403 82.4824 246.629 76.7246C245.855 70.9669 243.864 65.4389 240.789 60.5066C237.714 55.5742 233.624 51.3499 228.791 48.1133L228.79 48.1132Z" fill="#4B5229"/>
<g opacity="0.15">
<path d="M175.774 17.2627C176.296 19.1346 177.081 20.9231 178.107 22.5749C176.39 21.1029 174.856 19.431 173.538 17.5949C174.279 17.4551 175.024 17.3443 175.774 17.2627Z" fill="black"/>
<path d="M150.215 46.2124C148.277 47.2684 146.464 48.5401 144.812 50.0032C147.602 46.7113 149.64 42.8532 150.787 38.6966C150.8 38.6467 150.814 38.5964 150.828 38.5464L150.867 38.4049C152.245 33.4439 154.918 28.9372 158.613 25.3456L158.904 25.0631L159.109 25.4123C160.241 27.3348 161.597 29.1175 163.147 30.7236C160.772 37.4146 156.149 42.9833 150.215 46.2124Z" fill="black"/>
<path d="M163.869 28.4052L163.83 28.5467C163.817 28.5967 163.803 28.647 163.789 28.6969C163.712 28.972 163.631 29.2451 163.547 29.5169C162.719 27.3749 162.137 25.1457 161.813 22.8724L161.782 22.6795L161.941 22.5662C163.934 21.1367 166.099 19.9621 168.385 19.07C166.333 21.8872 164.803 25.049 163.869 28.4052Z" fill="black"/>
<path d="M137.213 56.2121C138.928 55.2748 140.534 54.1498 142 52.8578C139.072 56.2613 136.972 60.2954 135.867 64.6441C134.761 68.9928 134.68 73.5379 135.628 77.9233C136.577 82.3087 138.531 86.4153 141.335 89.9212C144.14 93.4271 147.72 96.2372 151.795 98.1312L151.928 98.1922L152.06 98.1327C154.261 97.1402 156.582 96.4368 158.964 96.0402C157.477 96.7962 156.091 97.7354 154.838 98.8357L154.414 99.2014L154.946 99.3766C155.405 99.5281 155.864 99.6674 156.31 99.791C158.931 100.52 161.641 100.882 164.363 100.866C176.726 100.787 189.186 103.64 201.395 109.346C203.488 110.322 205.66 111.124 207.887 111.741C217.593 114.438 227.955 113.468 236.988 109.016C231.895 114.895 225.236 119.211 217.783 121.464C210.33 123.716 202.39 123.812 194.885 121.74C192.658 121.123 190.486 120.322 188.392 119.345C176.183 113.64 163.724 110.787 151.36 110.866C148.639 110.881 145.929 110.519 143.308 109.791C142.861 109.667 142.402 109.528 141.944 109.376L141.412 109.201L141.836 108.835C143.088 107.735 144.474 106.796 145.961 106.04C143.579 106.436 141.258 107.14 139.057 108.132L138.925 108.192L138.793 108.131C133.899 105.857 129.735 102.272 126.765 97.7737C123.794 93.2756 122.134 88.0422 121.97 82.6575C121.807 77.2727 123.145 71.9484 125.837 67.2787C128.528 62.609 132.467 58.7776 137.213 56.2121L137.213 56.2121Z" fill="black"/>
</g>
</g>
<defs>
<clipPath id="clip0_13_86">
<rect width="247" height="208" fill="white"/>
</clipPath>
</defs>
</svg>
