<svg width="120" height="120" viewBox="0 0 120 120" fill="none" xmlns="http://www.w3.org/2000/svg">
<g clip-path="url(#clip0_57_31)">
<path d="M85.5316 85.5H55.5316V44.8985L81.4715 59.109L85.5316 85.5Z" fill="#2F2E41"/>
<path d="M61.0736 78.3341C71.8306 78.3341 80.5509 69.6138 80.5509 58.8568C80.5509 48.0999 71.8306 39.3796 61.0736 39.3796C50.3167 39.3796 41.5964 48.0999 41.5964 58.8568C41.5964 69.6138 50.3167 78.3341 61.0736 78.3341Z" fill="#FFB6B6"/>
<path d="M49.8924 81.2143L49.0125 72.3195L66.5842 69.0338L76.9601 94.297L58.915 115.049L46.0579 89.7857L49.8924 81.2143Z" fill="#FFB6B6"/>
<path d="M103.092 101.75C102.873 101.977 102.65 102.203 102.426 102.426C101.718 103.135 100.996 103.823 100.259 104.49C89.206 114.514 75.0248 120 60 120C46.1481 120 33.0135 115.338 22.3872 106.755C22.3805 106.75 22.3759 106.746 22.3692 106.739C22.0466 106.48 21.7286 106.216 21.4105 105.947C21.4669 105.785 21.5278 105.625 21.5887 105.467C25.006 96.5639 31.7549 92.2083 35.8511 90.3023C37.8812 89.3572 39.2594 89.012 39.2594 89.012L44.0684 80.3504L47.4541 86.6662L49.9489 91.3218L60.185 110.42L69.0158 88.4323L71.7519 81.6158L72.4534 79.8699L75.7895 82.4662L78.9474 84.9226L85.306 86.3256L90.4647 87.4647L97.4707 89.012C100.304 91.3196 102.027 95.709 102.99 101.163C103.026 101.357 103.06 101.553 103.092 101.75V101.75Z" fill="#4B5229"/>
<path d="M50.8284 36.7225C53.2009 32.7373 57.5583 30.0029 62.1788 29.5999C66.7992 29.1969 71.5642 31.1356 74.5909 34.6499C76.3944 36.7441 77.577 39.3088 79.335 41.4414C83.1183 46.0306 89.5694 48.7139 91.2221 54.4272C91.9433 56.9204 91.5839 59.5821 91.219 62.1517C90.9062 64.3541 90.5934 66.5565 90.2807 68.759C90.0373 70.4729 89.8039 72.2799 90.4465 73.8873C91.2006 75.7732 93.005 77.0084 94.1716 78.671C96.1568 81.4999 96.0117 85.6417 93.8334 88.3247C92.8887 89.4883 91.6363 90.3658 90.6459 91.4907C89.6555 92.6156 88.9209 94.1536 89.3357 95.5938C90.1303 98.3528 94.457 99.0144 94.9316 101.846C95.1742 103.294 94.1743 104.739 92.8641 105.401C91.554 106.063 90.0117 106.083 88.5545 105.906C83.0161 105.232 77.8883 101.772 75.1918 96.8876C72.4952 92.0034 72.2989 85.8202 74.6801 80.7747C76.6358 76.6308 80.2707 72.9689 80.2311 68.3868C80.2096 65.8906 79.0646 63.5591 77.945 61.3278C75.6534 56.7611 73.3618 52.1944 71.0703 47.6277C69.8428 45.1815 68.4182 42.5454 65.8911 41.4945C63.938 40.6823 61.7219 40.9973 59.6329 41.3295C57.544 41.6617 55.3311 41.985 53.3722 41.187C51.4133 40.3889 49.9331 38.0179 50.8665 36.1197" fill="#2F2E41"/>
<path d="M54.2417 36.9306C50.4787 35.6919 46.2574 37.6804 43.7098 40.7143C41.1623 43.7482 39.9265 47.6405 38.7492 51.4232C38.0749 53.5899 37.4006 55.7566 36.7263 57.9233C36.0919 59.9616 35.4576 61.9998 34.8232 64.0381C34.0771 66.4355 33.3249 68.9826 33.9372 71.4176C34.3799 73.1781 35.519 74.7766 35.5435 76.5916C35.5691 78.4876 34.3818 80.1522 33.3412 81.7373C32.3007 83.3225 31.3239 85.2058 31.8196 87.0361C32.5737 89.8199 36.4442 91.3501 36.232 94.2265C36.1612 95.1864 35.6061 96.0743 35.6162 97.0368C35.629 98.2614 36.5878 99.3196 37.7111 99.8075C38.8344 100.295 40.0979 100.322 41.3224 100.3C45.0784 100.234 48.8275 99.7883 52.4941 98.9712C53.9048 98.6569 55.3393 98.2713 56.5136 97.4287C57.6878 96.5862 58.5638 95.1901 58.411 93.753C58.1729 91.5134 55.7649 90.2429 54.5498 88.3466C53.3563 86.4841 53.3839 84.1242 52.8693 81.9727C52.1619 79.0159 50.4151 76.4346 49.1037 73.6917C44.1736 63.3798 45.8994 50.236 53.3245 41.5464C53.981 40.7781 54.6983 40.0052 54.9721 39.0324C55.246 38.0596 54.893 36.8202 53.9414 36.4799" fill="#2F2E41"/>
<path d="M102.426 17.5737C91.094 6.24135 76.0263 0 60 0C43.9737 0 28.906 6.24135 17.5737 17.5737C6.24135 28.906 0 43.9737 0 60C0 74.6278 5.19925 88.4571 14.7271 99.3767C15.6361 100.421 16.5857 101.438 17.5737 102.426C17.806 102.659 18.0406 102.891 18.2775 103.117C18.909 103.728 19.5519 104.326 20.206 104.905C20.603 105.259 21.0045 105.607 21.4105 105.947C21.7286 106.216 22.0466 106.48 22.3692 106.739C22.3759 106.746 22.3805 106.75 22.3872 106.755C33.0135 115.338 46.1481 120 60 120C75.0248 120 89.206 114.514 100.259 104.49C100.996 103.823 101.718 103.135 102.426 102.426C102.65 102.203 102.873 101.977 103.092 101.75C103.701 101.123 104.292 100.484 104.869 99.8368C114.652 88.8474 120 74.8353 120 60C120 43.9737 113.759 28.906 102.426 17.5737V17.5737ZM104.723 99.2752C104.159 99.9158 103.581 100.547 102.99 101.163C102.07 102.122 101.12 103.051 100.139 103.947C99.7669 104.289 99.3902 104.623 99.009 104.955C95.1586 108.305 90.8729 111.165 86.2511 113.443C84.6293 114.244 82.9669 114.972 81.2662 115.624C74.6594 118.159 67.4887 119.549 60 119.549C52.7729 119.549 45.8436 118.254 39.4308 115.886C36.7985 114.916 34.2541 113.763 31.8113 112.444C31.4526 112.25 31.0962 112.053 30.7421 111.853C28.879 110.797 27.0767 109.644 25.3466 108.399C24.0541 107.472 22.8 106.495 21.5887 105.467C21.1647 105.108 20.7451 104.745 20.3323 104.373C19.6601 103.775 19.0015 103.159 18.3587 102.528C17.1406 101.335 15.9767 100.092 14.8647 98.7992C5.88497 88.3692 0.451128 74.8083 0.451128 60C0.451128 27.1647 27.1647 0.451128 60 0.451128C92.8353 0.451128 119.549 27.1647 119.549 60C119.549 75.0361 113.948 88.7865 104.723 99.2752V99.2752Z" fill="#3F3D56"/>
</g>
<defs>
<clipPath id="clip0_57_31">
<rect width="120" height="120" fill="white"/>
</clipPath>
</defs>
</svg>
