<svg width="36" height="36" viewBox="0 0 36 36" fill="none" xmlns="http://www.w3.org/2000/svg">
<path d="M30.4416 28.4544C30.0097 28.4544 29.5775 28.2816 29.2607 27.9648L4.37753 3.19682C3.71498 2.56322 3.71498 1.49767 4.37753 0.864071C5.03988 0.201722 6.07668 0.201722 6.73923 0.864071L31.6224 25.6033C32.2848 26.2656 32.2848 27.3024 31.6224 27.965C31.3054 28.2818 30.8735 28.4546 30.4416 28.4546V28.4544Z" fill="black"/>
<path d="M5.55849 28.4544C5.12658 28.4544 4.69444 28.2816 4.37764 27.9648C3.71529 27.3025 3.74404 26.2657 4.37764 25.6031L29.2608 0.835131C29.9232 0.172782 30.96 0.201531 31.6225 0.835131C32.2849 1.49748 32.2561 2.53428 31.6225 3.19683L6.73934 27.9648C6.39381 28.2816 5.9906 28.4544 5.55849 28.4544Z" fill="black"/>
</svg>
